<?xml version="1.0" encoding="utf-8"?>
<!-- Generator: Adobe Illustrator 15.0.0, SVG Export Plug-In  -->
<!DOCTYPE svg PUBLIC "-//W3C//DTD SVG 1.1//EN" "http://www.w3.org/Graphics/SVG/1.1/DTD/svg11.dtd" [
	<!ENTITY ns_flows "http://ns.adobe.com/Flows/1.0/">
]>
<svg version="1.1"
	 xmlns="http://www.w3.org/2000/svg" xmlns:xlink="http://www.w3.org/1999/xlink" xmlns:a="http://ns.adobe.com/AdobeSVGViewerExtensions/3.0/"
	 x="0px" y="0px" width="381px" height="96px" viewBox="-4 -4.5 381 96" enable-background="new -4 -4.5 381 96"
	 xml:space="preserve">
<defs>
</defs>
<path fill-rule="evenodd" clip-rule="evenodd" fill="#FFFFFF" d="M28.56,0c2.96,0,5.92,0,8.88,0c1.161,0.228,1.394,2.702,0,2.88
	c-0.951,5.05-0.486,12.793-0.24,18.24c1.569,12.911,9.134,19.826,8.16,35.28c-0.555,0.964-0.083,2.956-0.24,4.319
	c0,1.12,0,2.24,0,3.36c-0.552,0.568-0.086,2.154-0.24,3.12c0,0.88,0,1.76,0,2.64c-0.551,0.489-0.087,1.993-0.24,2.88
	c0,0.801,0,1.601,0,2.4c-0.549,0.411-0.088,1.832-0.24,2.64c0.131,3.571-1.083,5.798-3.6,6.721c-5.2,0-10.4,0-15.6,0
	c-2.033-0.527-2.886-2.234-3.6-4.08c1.86-3.34,2.316-8.085,3.12-12.48c8.564,0.91,13.492-4.866,15.6-11.52
	c0.557-1.757,2.47-6.204,2.16-7.44c-0.606-2.413-5.176-1.033-7.44-0.479c-4.981,1.218-8.452,2.583-10.8,4.56
	c1.249-4.77,1.125-11.035-0.72-15.12c1.285-4.584,4.638-9.377,5.28-15.12c0.686-6.129-0.503-12.252,0-19.2
	c-0.062-1.219-1.732-0.828-1.44-2.4C27.701,0.741,28.101,0.341,28.56,0z"/>
<path fill-rule="evenodd" clip-rule="evenodd" fill="#FFFFFF" d="M61.68,28.56c0.15-0.729-0.307-2.067,0.24-2.4c0,0.8,0,1.6,0,2.4
	C61.84,28.56,61.76,28.56,61.68,28.56z"/>
<path fill-rule="evenodd" clip-rule="evenodd" fill="#FFFFFF" d="M61.68,33.12c0,0.8,0,1.6,0,2.4c-0.08,0-0.16,0-0.24,0
	C61.591,34.791,61.133,33.453,61.68,33.12z"/>
<path fill-rule="evenodd" clip-rule="evenodd" d="M0.72,35.04c0,0.96,0,1.92,0,2.88C0.322,37.506,0.322,35.454,0.72,35.04z"/>
<path fill-rule="evenodd" clip-rule="evenodd" fill="#FFFFFF" d="M61.44,35.52c0.08,0,0.16,0,0.24,0c0,0.96,0,1.92,0,2.88
	C61.129,37.911,61.593,36.407,61.44,35.52z"/>
<path fill-rule="evenodd" clip-rule="evenodd" fill="#FFFFFF" d="M345.36,48.96c4.321-0.399,10.319-0.399,14.641,0
	c-4.8,0-9.601,0-14.4,0C345.521,48.96,345.44,48.96,345.36,48.96z"/>
<path fill-rule="evenodd" clip-rule="evenodd" d="M345.36,48.96c0.08,0,0.16,0,0.24,0c0,11.68,0,23.36,0,35.04
	c-0.08,0-0.16,0-0.24,0C345.36,72.32,345.36,60.64,345.36,48.96z"/>
<path fill-rule="evenodd" clip-rule="evenodd" fill="#FFFFFF" d="M270.721,84.48c-2.148-0.125-9.605-2.98-7.92-5.28
	c0.952-1.3,4.825,2.391,5.52,2.64c7.435,2.672,13.479-2.795,12.48-8.64c-1.192-6.984-13.91-4.991-16.561-11.28
	c-3.05-7.238,3.706-12.378,9.12-12.479c1.826-0.035,3.877,0.43,5.521,1.199c1.009,0.474,3.547,1.324,2.88,3.36
	c-2.239,0.537-3.757-1.992-6.24-2.4c-4.097-0.672-8.399,1.373-9.36,4.561c-3.344,11.095,16.566,6.721,17.04,17.52
	c0.242,5.512-3.172,9.766-9.6,10.801C272.641,84.48,271.681,84.48,270.721,84.48z"/>
<path fill-rule="evenodd" clip-rule="evenodd" fill="#FFFFFF" d="M80.88,49.92c0.882,0.078,2.125-0.204,2.64,0.24
	c0,5.12,0,10.24,0,15.36c6.561,0.56,14.16,0.08,21.12,0.239c0.08,0,0.16,0,0.24,0c0.16-5.2-0.32-11.039,0.24-15.84
	c0.72,0,1.44,0,2.16,0c0,11.36,0,22.721,0,34.08c-0.64,0-1.28,0-1.92,0c-1.116-4.404-0.164-10.877-0.48-16.08
	c-6.561-0.399-14.8-0.399-21.36,0c0,5.28,0,10.561,0,15.84c-0.515,0.445-1.758,0.162-2.64,0.24
	C80.88,72.641,80.88,61.28,80.88,49.92z"/>
<path fill-rule="evenodd" clip-rule="evenodd" fill="#FFFFFF" d="M116.16,49.92c4.378,0,11.051,0,16.08,0
	c1.36,0,3.92-0.778,4.32,0.96c-0.138,1.693-2.696,0.96-3.84,0.96c-4.202,0-9.668,0-13.92,0c-0.554,4.086-0.084,9.196-0.24,13.681
	c4.561,0.56,10.16,0.08,15.12,0.239c0,0.641,0,1.28,0,1.92c-4.96,0-9.92,0-14.88,0c-0.555,4.246-0.084,9.517-0.24,14.16
	c5.526,0.715,12.714-0.234,18.24,0.48c0,0.16,0,0.32,0,0.479c-0.298,1.909-2.81,1.2-4.32,1.2c-4.972,0-11.307,0-16.32,0
	C116.16,72.641,116.16,61.28,116.16,49.92z"/>
<path fill-rule="evenodd" clip-rule="evenodd" fill="#FFFFFF" d="M145.68,68.641c-0.56,4.64-0.08,10.319-0.24,15.359
	c-0.8,0-1.6,0-2.4,0c0-11.359,0-22.72,0-34.08c3.28,0,6.56,0,9.84,0c5.83,0.25,9.845,2.315,10.56,7.681c0,0.8,0,1.6,0,2.399
	c-0.76,5-4.108,7.411-9.12,8.16c3.12,5.12,8.176,10.384,12,15.6c-0.333,0.548-1.67,0.09-2.4,0.24
	c-4.527-4.833-8.038-10.683-12.72-15.359C149.36,68.641,147.521,68.641,145.68,68.641z M145.68,66.72
	c5.856,0.002,10.836,0.488,13.68-2.64c3.748-4.121,1.452-12.627-5.52-12c0-0.08,0-0.16,0-0.24c-2.8,0-5.6,0-8.4,0
	C145.6,56.721,145.121,62.239,145.68,66.72z"/>
<path fill-rule="evenodd" clip-rule="evenodd" fill="#FFFFFF" d="M183.601,84c-4.16,0-8.32,0-12.48,0c0-11.359,0-22.72,0-34.08
	c3.6,0,7.2,0,10.8,0c2.574,0.291,4.488,0.343,6.24,1.2c6.386,3.125,4.847,14.321-2.4,15.36c2.727,0.931,5.056,1.509,6.48,3.359
	C196.766,75.723,191.163,84.661,183.601,84z M173.76,65.76c6.723,0.072,13.026,0.704,15.36-3.6c2.427-4.476-0.402-10.245-6-10.08
	c-2.721-0.559-6.479-0.081-9.6-0.24C173.68,56.4,173.201,61.6,173.76,65.76z M184.081,81.84c4.009-0.23,6.464-2.016,6.959-5.76
	c0.398-0.336,0.398-2.304,0-2.64c-0.503-3.577-2.995-5.165-6.72-5.521c-1.427-0.422-2.948-0.24-5.28-0.24
	c-0.999,0-4.767-0.753-5.52,0c-0.768,0.769,0,5.747,0,7.2c0,2.81,0,5.016,0,7.2C176.961,81.921,181.04,82.399,184.081,81.84z"/>
<path fill-rule="evenodd" clip-rule="evenodd" fill="#FFFFFF" d="M209.28,50.4c0.261-0.779,1.685-0.396,2.64-0.48
	c0.08,0,0.16,0,0.24,0c4.316,11.604,9.313,22.528,13.681,34.08c-3.179,0.669-3.369-2.571-4.08-4.32
	c-0.827-2.031-1.789-4.027-2.4-5.76c-0.046-0.194-0.24-0.239-0.24-0.479c-5.52,0.159-11.68-0.32-16.8,0.239
	c-1.592,3.369-2.536,7.384-4.56,10.32c-0.721,0-1.44,0-2.16,0C200.183,72.822,204.853,61.732,209.28,50.4z M203.28,71.521
	c4.96-0.16,10.56,0.319,15.12-0.24c-2.707-6.093-5.059-12.541-7.68-18.72C208.435,59.074,205.571,65.011,203.28,71.521z"/>
<path fill-rule="evenodd" clip-rule="evenodd" fill="#FFFFFF" d="M230.4,49.92c0.882,0.078,2.125-0.204,2.64,0.24
	c0,10.479,0,20.96,0,31.44c1.768,0.426,4.778,0.239,8.641,0.239c2.689,0,8.404-1.194,7.439,2.16c-6.239,0-12.479,0-18.72,0
	C230.4,72.641,230.4,61.28,230.4,49.92z"/>
<path fill-rule="evenodd" clip-rule="evenodd" fill="#FFFFFF" d="M256.08,49.92c-0.159,11.28,0.32,23.2-0.239,34.08
	c-0.561,0-1.12,0-1.681,0c-0.949-10.224-0.482-23.778-0.239-34.08C254.641,49.92,255.36,49.92,256.08,49.92z"/>
<path fill-rule="evenodd" clip-rule="evenodd" fill="#FFFFFF" d="M285.601,52.08c-0.402-0.398-0.191-1.409-0.24-2.16
	c8.802,0.159,18.238-0.318,26.641,0.24c-0.01,0.239,0.012,0.48,0,0.72c-0.136,2.781-9.596,0.41-12,1.2c0,10.56,0,21.12,0,31.68
	c-0.516,0.445-1.759,0.162-2.641,0.24c0-10.56,0-21.12,0-31.68C293.92,51.761,289.441,52.239,285.601,52.08z"/>
<path fill-rule="evenodd" clip-rule="evenodd" fill="#FFFFFF" d="M153.84,52.08c-1.661,0.751-6.731-0.99-7.92,0
	c-0.897,0.748-0.24,5.325-0.24,7.2c0,2.982,0,5.519,0,7.439c-0.56-4.48-0.08-9.999-0.24-14.88c2.8,0,5.6,0,8.4,0
	C153.84,51.92,153.84,52,153.84,52.08z"/>
<path fill-rule="evenodd" clip-rule="evenodd" fill="#FFFFFF" d="M183.12,52.08c-1.677,0.988-8.065-1.295-9.36,0
	c-0.685,0.686,0,5.277,0,6.72c0,2.639,0,4.957,0,6.96c-0.56-4.16-0.08-9.359-0.24-13.92C176.641,51.999,180.399,51.521,183.12,52.08
	z"/>
<path fill-rule="evenodd" clip-rule="evenodd" fill="#FFFFFF" d="M45.36,56.4c-0.157,1.363,0.316,3.355-0.24,4.319
	C45.277,59.356,44.805,57.364,45.36,56.4z"/>
<path fill-rule="evenodd" clip-rule="evenodd" fill="#FFFFFF" d="M12.96,64.08c1.729,1.471,3.768,2.632,6.72,2.88
	c-5.859,5.045-13.062-2.666-13.44-9.359c3.548,3.812,13.245,1.475,13.92,8.159c-3.405,0.285-5.028-1.212-7.2-2.159
	c-0.329-0.552-0.988-0.772-1.44-1.2C11.818,63.142,12.313,63.688,12.96,64.08z"/>
<path fill-rule="evenodd" clip-rule="evenodd" d="M163.44,57.601c0.397,0.259,0.397,2.141,0,2.399
	C163.44,59.2,163.44,58.4,163.44,57.601z"/>
<path fill-rule="evenodd" clip-rule="evenodd" fill="#FFFFFF" d="M45.12,64.08c-0.154,0.966,0.312,2.552-0.24,3.12
	C45.034,66.234,44.568,64.648,45.12,64.08z"/>
<path fill-rule="evenodd" clip-rule="evenodd" fill="#FFFFFF" d="M21.12,66.72c0.399,0.729,0.399,3.112,0,3.841
	C21.12,69.28,21.12,68,21.12,66.72z"/>
<path fill-rule="evenodd" clip-rule="evenodd" fill="#FFFFFF" d="M44.88,69.84c-0.153,0.887,0.311,2.391-0.24,2.88
	C44.793,71.833,44.329,70.329,44.88,69.84z"/>
<path fill-rule="evenodd" clip-rule="evenodd" fill="#FFFFFF" d="M191.04,73.44c0.398,0.336,0.398,2.304,0,2.64
	C191.04,75.2,191.04,74.32,191.04,73.44z"/>
<path fill-rule="evenodd" clip-rule="evenodd" fill="#FFFFFF" d="M230.4,84c6.24,0,12.48,0,18.72,0
	C243.44,84.4,236.081,84.4,230.4,84z"/>
<path fill-rule="evenodd" clip-rule="evenodd" d="M11.76,36c-0.349,0.106,0.024,0.211,0,0.48c-0.693-0.107-0.567-1.033-1.2-1.2
	C10.728,34.823,11.653,35.604,11.76,36z"/>
<path opacity="0" fill-rule="evenodd" clip-rule="evenodd" d="M28.56,0c-0.459,0.341-0.859,0.741-1.2,1.2
	c-0.292,1.572,1.378,1.181,1.44,2.4c-0.503,6.948,0.686,13.07,0,19.2c-0.643,5.743-3.996,10.536-5.28,15.12
	c1.845,4.085,1.969,10.351,0.72,15.12c2.348-1.977,5.819-3.342,10.8-4.56c2.264-0.554,6.834-1.934,7.44,0.479
	c0.311,1.236-1.603,5.684-2.16,7.44c-2.108,6.653-7.036,12.43-15.6,11.52c-0.804,4.396-1.26,9.141-3.12,12.48
	c0.714,1.846,1.567,3.553,3.6,4.08c-8.4,0-16.8,0-25.2,0C0,56.32,0,28.161,0,0C9.52,0,19.04,0,28.56,0z M21.12,70.561
	c0.324,2.167-0.724,4.232,0,6c1.792-8.929,1.693-19.747,11.28-20.881c-3.513,2.487-7.206,4.795-7.92,10.08
	c11.133,1.36,13.546-8.045,15.84-16.319c-7.933,1.588-15.964,3.076-17.76,10.8c-1.575-6.155,1.01-9.998,0.48-16.08
	c-1.167-13.376-12.761-17.115-22.8-23.04c1.085,4.127,1.11,9.277,0.48,13.92c-0.398,0.414-0.398,2.466,0,2.88
	c0.743,11.259,7.975,17.304,17.76,18.72c0.135-8.138-3.305-14.772-6.72-20.16c0.024-0.269-0.349-0.374,0-0.48
	c7.362,5.998,9.027,17.692,9.36,30.72C21.12,68,21.12,69.28,21.12,70.561z M12.96,63.601c2.172,0.947,3.795,2.444,7.2,2.159
	c-0.675-6.685-10.372-4.348-13.92-8.159c0.378,6.693,7.581,14.404,13.44,9.359c-2.952-0.248-4.991-1.409-6.72-2.88
	C12.984,63.811,12.611,63.706,12.96,63.601z"/>
<path fill-rule="evenodd" clip-rule="evenodd" fill="#FFFFFF" d="M37.2,21.12c-0.247-5.447-0.711-13.19,0.24-18.24
	C36.883,8.483,37.357,15.118,37.2,21.12z"/>
<path fill-rule="evenodd" clip-rule="evenodd" fill="#FFFFFF" d="M345.601,84c2.561,0,5.12,0,7.68,0
	c0.714-3.366-0.231-8.392,0.48-11.76c1.92,0,3.84,0,5.76,0c-1.362,0.558-3.758,0.082-5.52,0.24c-0.714,3.366,0.231,8.392-0.48,11.76
	c-2.641-0.159-5.919,0.318-8.16-0.24C345.44,84,345.521,84,345.601,84z"/>
<path opacity="0" fill-rule="evenodd" clip-rule="evenodd" d="M273.601,84.48c6.428-1.035,9.842-5.289,9.6-10.801
	c-0.474-10.799-20.384-6.425-17.04-17.52c0.961-3.188,5.264-5.232,9.36-4.561c2.483,0.408,4.001,2.938,6.24,2.4
	c0.667-2.036-1.871-2.887-2.88-3.36c-1.644-0.77-3.694-1.234-5.521-1.199c-5.414,0.102-12.17,5.241-9.12,12.479
	c2.65,6.289,15.368,4.296,16.561,11.28c0.998,5.845-5.046,11.312-12.48,8.64c-0.694-0.249-4.567-3.939-5.52-2.64
	c-1.686,2.3,5.771,5.155,7.92,5.28c-76.643,0-153.275,0-229.92,0c2.517-0.923,3.731-3.149,3.6-6.721
	c0.549-0.41,0.088-1.832,0.24-2.64c0-0.8,0-1.6,0-2.4c0.551-0.489,0.087-1.993,0.24-2.88c0-0.88,0-1.76,0-2.64
	c0.552-0.568,0.086-2.154,0.24-3.12c0-1.12,0-2.24,0-3.36c0.556-0.964,0.083-2.956,0.24-4.319c0.974-15.454-6.59-22.37-8.16-35.28
	c0.157-6.002-0.317-12.637,0.24-18.24c1.394-0.178,1.161-2.652,0-2.88c111.518,0,223.043,0,334.561,0c0,19.52,0,39.04,0,58.561
	c-1.144-6.057-5.354-9.046-12-9.601c-4.321-0.399-10.319-0.399-14.641,0c0,11.68,0,23.36,0,35.04c2.241,0.559,5.52,0.081,8.16,0.24
	c0.712-3.368-0.233-8.394,0.48-11.76c1.762-0.158,4.157,0.317,5.52-0.24c7.092-0.429,11.391-3.649,12.48-10.08
	c0,7.44,0,14.88,0,22.32c-13.681,0-27.36,0-41.04,0c8.471-0.202,14.18-10.477,9.12-17.28c-1.413-1.9-4.202-3.062-7.2-4.08
	c-2.522-0.857-6.461-1.941-6.721-4.32c-0.353-3.237,2.226-3.977,5.04-3.84c3.096,0.15,4.526,2.422,6.48,2.16
	c2.563-0.344,1.919-2.813,3.6-4.8c-6.174-6.326-19.675-4.406-22.319,3.12c-1.824,5.191,0.612,10.307,4.08,12.239
	c3.731,2.081,10.392,1.99,11.04,5.521c0.684,3.729-1.969,5.098-5.521,4.8c-2.541-0.213-5.134-3.141-7.439-2.88
	c-2.685,0.304-2.086,2.754-3.841,4.56c2.197,2.844,6.158,3.923,10.32,4.801C309.601,84.48,291.601,84.48,273.601,84.48z
	 M61.92,26.16c0.077-2.164,0.679-3.801,0.96-5.76c-1.526-1.056-5.121-1.249-6.96-1.2c-0.222,1.554-0.841,2.766-0.24,4.56
	c-2.203,5.21-1.794,10.649-4.32,15.12c-0.931,1.648-2.791,2.673-3.6,4.32c-1.658,3.372-0.287,6.563-0.48,10.8
	c-0.557,1.283-0.083,3.598-0.24,5.28c-0.163,7.757-0.158,15.683-1.2,22.56c3.78-0.487,9.124,2.573,12.24,1.2
	c2.969-1.309,3.148-13.976,3.6-17.28c0.918-6.711,2.657-13.579,2.64-18.479c-0.013-3.584-2.741-5.805-2.64-8.88
	c0-0.96,0-1.92,0-2.88c0-0.8,0-1.6,0-2.4c0.556-1.044,0.083-3.117,0.24-4.56C61.92,27.76,61.92,26.96,61.92,26.16z M80.88,49.92
	c0,11.36,0,22.721,0,34.08c0.316,0.301,2.698,0.631,2.64-0.24c0-5.279,0-10.56,0-15.84c6.96,0.16,14.56-0.319,21.12,0.24
	c0,1.694,0,4.658,0,7.92c0,3.993-1.166,9.886,2.64,7.92c0-11.359,0-22.72,0-34.08c-3.925-1.841-2.64,4.15-2.64,7.92
	c0,3.262,0,6.227,0,7.92c-6.96-0.159-14.56,0.32-21.12-0.239c0-5.12,0-10.24,0-15.36C83.579,49.29,81.197,49.619,80.88,49.92z
	 M116.16,49.92c0,11.36,0,22.721,0,34.08c3.041,0.56,7.12,0.081,10.56,0.24c1.76,0,3.52,0,5.28,0c1.662-0.418,5.282,1.122,4.8-1.44
	c0-0.159,0-0.319,0-0.479c-4.299-1.099-12.434-0.174-18-0.48c0.16-4.561-0.32-9.759,0.24-13.92c4.8-0.159,10.24,0.319,14.64-0.24
	c0-0.64,0-1.279,0-1.92c-1.971-0.433-4.526-0.239-7.44-0.239c-1.655,0-6.639,0.721-7.44-0.24c-0.189-0.228,0-2.538,0-3.12
	c0-3.72,0-7.019,0-10.08c5.916-0.31,13.005,0.626,18-0.48c0-0.479,0-0.96,0-1.439C130.953,49.207,122.406,49.675,116.16,49.92z
	 M152.88,49.92c-1.346-0.424-2.937-0.24-5.04-0.24c-0.809,0-4.378-0.553-5.04,0.24c-0.216,0.259,0,3.182,0,4.32
	c0,9.818-0.188,22.218,0.24,30c0.8,0,1.6,0,2.4,0c0.555-4.725,0.083-10.477,0.24-15.6c1.84,0,3.68,0,5.52,0
	c4.683,4.677,8.193,10.526,12.72,15.359c0.205,0.421,3.313,0.457,2.4-0.24c-3.824-5.216-8.88-10.479-12-15.6
	c5.012-0.749,8.36-3.16,9.12-8.16c0.397-0.259,0.397-2.141,0-2.399C162.725,52.235,158.71,50.17,152.88,49.92z M181.92,49.92
	c-3.127-0.405-7.911-0.392-11.04,0c0,11.36,0,22.721,0,34.08c3.687,0.394,9.035,0.404,12.72,0c7.563,0.661,13.165-8.277,8.64-14.16
	c-1.424-1.851-3.753-2.429-6.48-3.359c7.247-1.039,8.786-12.235,2.4-15.36C186.408,50.263,184.495,50.211,181.92,49.92z
	 M211.92,49.92c-0.441-0.348-2.866-0.637-2.64,0.48c-4.428,11.332-9.098,22.422-13.68,33.6c0.72,0,1.439,0,2.16,0
	c2.023-2.937,2.968-6.951,4.56-10.32c5.603,0.157,11.836-0.315,17.04,0.24c0.611,1.732,1.573,3.729,2.4,5.76
	c0.711,1.749,0.901,4.989,4.08,4.32c-4.368-11.552-9.364-22.477-13.681-34.08C212.08,49.92,212,49.92,211.92,49.92z M230.4,49.92
	c0,11.36,0,22.721,0,34.08c5.681,0.4,13.04,0.4,18.72,0c0.965-3.354-4.75-2.16-7.439-2.16c-3.862,0-6.873,0.187-8.641-0.239
	c0-10.48,0-20.961,0-31.44C233.099,49.29,230.717,49.619,230.4,49.92z M253.44,50.4c0.159,11.2-0.319,23.039,0.24,33.84
	c0.8,0,1.6,0,2.399,0c0.4-10.962,0.4-23.599,0-34.561C255.139,49.857,253.334,49.174,253.44,50.4z M312.001,50.16
	c-2.853-0.859-8.971-0.48-13.44-0.48c-4.786,0-9.399-0.193-13.44,0.24c0.216,0.664-0.492,2.253,0.48,2.16
	c3.841,0.159,8.319-0.319,11.76,0.24c0,10.56,0,21.12,0,31.68c0.317,0.301,2.698,0.631,2.641-0.24c0-10.56,0-21.12,0-31.68
	c2.404-0.79,11.864,1.581,12-1.2C312.013,50.641,311.991,50.399,312.001,50.16z"/>
<path fill-rule="evenodd" clip-rule="evenodd" fill="#FFFFFF" d="M0.72,35.04c0.63-4.643,0.605-9.793-0.48-13.92
	c10.039,5.925,21.633,9.664,22.8,23.04c0.53,6.082-2.055,9.925-0.48,16.08c1.796-7.724,9.828-9.212,17.76-10.8
	c-2.294,8.274-4.708,17.68-15.84,16.319c0.714-5.285,4.407-7.593,7.92-10.08c-9.586,1.134-9.488,11.952-11.28,20.881
	c-0.724-1.768,0.324-3.833,0-6c0.399-0.729,0.399-3.112,0-3.841C20.788,53.692,19.122,41.998,11.76,36
	c-0.107-0.396-1.033-1.177-1.2-0.72c0.633,0.167,0.507,1.092,1.2,1.2c3.415,5.388,6.855,12.022,6.72,20.16
	C8.695,55.224,1.463,49.179,0.72,37.92C0.72,36.96,0.72,36,0.72,35.04z"/>
<path fill-rule="evenodd" clip-rule="evenodd" d="M60.48,24.96c0.277,3.327,0.455,10.688-0.72,14.16
	c-1.257-0.659-0.783-2.487-0.72-3.6c0.183-3.224,1.122-6.65,1.44-9.84C60.48,25.44,60.48,25.2,60.48,24.96z"/>
<path fill-rule="evenodd" clip-rule="evenodd" d="M83.52,67.92c6.561-0.399,14.8-0.399,21.36,0c0.316,5.203-0.636,11.676,0.48,16.08
	c0.64,0,1.28,0,1.92,0c-3.806,1.966-2.64-3.927-2.64-7.92c0-3.262,0-6.226,0-7.92C98.08,67.601,90.48,68.08,83.52,67.92z"/>
<path fill-rule="evenodd" clip-rule="evenodd" fill="#FFFFFF" d="M104.64,65.76c0-1.693,0-4.658,0-7.92
	c0-3.77-1.285-9.761,2.64-7.92c-0.72,0-1.44,0-2.16,0c-0.56,4.801-0.08,10.64-0.24,15.84C104.8,65.76,104.72,65.76,104.64,65.76z"/>
<path fill-rule="evenodd" clip-rule="evenodd" fill="#FFFFFF" d="M136.8,82.8c0.482,2.563-3.138,1.022-4.8,1.44
	c-1.76,0-3.52,0-5.28,0c-3.44-0.159-7.519,0.319-10.56-0.24c5.014,0,11.349,0,16.32,0C133.99,84,136.502,84.709,136.8,82.8z"/>
<path fill-rule="evenodd" clip-rule="evenodd" fill="#FFFFFF" d="M133.68,67.68c-4.4,0.56-9.84,0.081-14.64,0.24
	c-0.56,4.161-0.08,9.359-0.24,13.92c5.566,0.307,13.701-0.618,18,0.48c-5.526-0.715-12.714,0.234-18.24-0.48
	c0.156-4.644-0.314-9.914,0.24-14.16C123.76,67.68,128.72,67.68,133.68,67.68z"/>
<path fill-rule="evenodd" clip-rule="evenodd" fill="#FFFFFF" d="M116.16,49.92c6.246-0.245,14.792-0.713,20.64,0.24
	c0,0.479,0,0.96,0,1.439c-4.995,1.106-12.084,0.171-18,0.48c0,3.062,0,6.36,0,10.08c0,0.582-0.189,2.893,0,3.12
	c0.801,0.961,5.785,0.24,7.44,0.24c2.914,0,5.469-0.193,7.44,0.239c-4.96-0.159-10.56,0.32-15.12-0.239
	c0.156-4.484-0.314-9.595,0.24-13.681c4.251,0,9.718,0,13.92,0c1.144,0,3.702,0.733,3.84-0.96c-0.4-1.738-2.96-0.96-4.32-0.96
	C127.211,49.92,120.538,49.92,116.16,49.92z"/>
<path fill-rule="evenodd" clip-rule="evenodd" fill="#FFFFFF" d="M145.68,68.641c-0.156,5.123,0.315,10.875-0.24,15.6
	c-0.8,0-1.6,0-2.4,0c-0.428-7.782-0.24-20.182-0.24-30c0-1.139-0.216-4.062,0-4.32c0.662-0.793,4.231-0.24,5.04-0.24
	c2.103,0,3.694-0.184,5.04,0.24c-3.28,0-6.56,0-9.84,0c0,11.36,0,22.721,0,34.08c0.8,0,1.6,0,2.4,0
	C145.6,78.96,145.121,73.28,145.68,68.641z"/>
<path fill-rule="evenodd" clip-rule="evenodd" fill="#FFFFFF" d="M183.601,84c-3.686,0.404-9.033,0.394-12.72,0
	c0-11.359,0-22.72,0-34.08c3.129-0.392,7.913-0.405,11.04,0c-3.6,0-7.2,0-10.8,0c0,11.36,0,22.721,0,34.08
	C175.28,84,179.44,84,183.601,84z"/>
<path fill-rule="evenodd" clip-rule="evenodd" fill="#FFFFFF" d="M209.28,50.4c-0.227-1.117,2.198-0.828,2.64-0.48
	C210.965,50.005,209.541,49.621,209.28,50.4z"/>
<path fill-rule="evenodd" clip-rule="evenodd" fill="#FFFFFF" d="M202.32,73.68c5.12-0.56,11.28-0.08,16.8-0.239
	c0,0.24,0.194,0.285,0.24,0.479C214.156,73.364,207.923,73.837,202.32,73.68z"/>
<path fill-rule="evenodd" clip-rule="evenodd" fill="#FFFFFF" d="M256.08,49.68c0.4,10.962,0.4,23.599,0,34.561
	c-0.8,0-1.6,0-2.399,0c-0.56-10.801-0.081-22.64-0.24-33.84C253.334,49.174,255.139,49.857,256.08,49.68z M253.921,49.92
	c-0.243,10.302-0.71,23.856,0.239,34.08c0.561,0,1.12,0,1.681,0c0.56-10.88,0.08-22.8,0.239-34.08
	C255.36,49.92,254.641,49.92,253.921,49.92z"/>
<path fill-rule="evenodd" clip-rule="evenodd" fill="#FFFFFF" d="M285.601,52.08c-0.973,0.093-0.265-1.496-0.48-2.16
	c4.041-0.434,8.654-0.24,13.44-0.24c4.47,0,10.588-0.379,13.44,0.48c-8.402-0.559-17.839-0.081-26.641-0.24
	C285.409,50.671,285.198,51.682,285.601,52.08z"/>
<path opacity="0" fill-rule="evenodd" clip-rule="evenodd" d="M183.12,52.08c5.598-0.165,8.427,5.604,6,10.08
	c-2.334,4.304-8.637,3.672-15.36,3.6c0-2.003,0-4.321,0-6.96c0-1.442-0.685-6.034,0-6.72
	C175.055,50.785,181.443,53.068,183.12,52.08z"/>
<path opacity="0" fill-rule="evenodd" clip-rule="evenodd" d="M210.721,52.561c2.621,6.179,4.973,12.627,7.68,18.72
	c-4.561,0.56-10.16,0.08-15.12,0.24C205.571,65.011,208.435,59.074,210.721,52.561z"/>
<path fill-rule="evenodd" clip-rule="evenodd" fill="#FFFFFF" d="M358.561,66c-1.148,0.423-3.883,0.367-5.04,0
	c0.153-3.606-0.311-7.831,0.24-11.04c1.762,0.158,4.157-0.317,5.52,0.24c-1.76,0-3.52,0-5.279,0c-0.56,3.041-0.081,7.119-0.24,10.56
	C354.885,66.316,357.038,65.843,358.561,66z"/>
<path opacity="0" fill-rule="evenodd" clip-rule="evenodd" d="M359.28,55.2c2.502,0.218,3.957,1.483,4.32,3.84c0,0.88,0,1.76,0,2.64
	c-0.272,2.848-1.915,4.325-5.04,4.32c-1.522-0.157-3.676,0.316-4.8-0.24c0.159-3.44-0.319-7.519,0.24-10.56
	C355.761,55.2,357.521,55.2,359.28,55.2z"/>
<path fill-rule="evenodd" clip-rule="evenodd" d="M12.96,64.08c-0.647-0.393-1.142-0.938-1.44-1.68
	c0.452,0.428,1.111,0.648,1.44,1.2C12.611,63.706,12.984,63.811,12.96,64.08z"/>
<path fill-rule="evenodd" clip-rule="evenodd" fill="#FFFFFF" d="M60.96,22.32c0.513,0.15,0.225,1.478,0,1.68
	C60.042,23.793,60.717,22.75,60.96,22.32z"/>
<path fill-rule="evenodd" clip-rule="evenodd" fill="#FFFFFF" d="M360.001,48.96c6.646,0.555,10.856,3.544,12,9.601
	c0,1.199,0,2.399,0,3.6c-1.09,6.431-5.389,9.651-12.48,10.08c-1.92,0-3.84,0-5.76,0c-0.712,3.368,0.233,8.394-0.48,11.76
	c-2.56,0-5.119,0-7.68,0c0-11.68,0-23.36,0-35.04C350.4,48.96,355.201,48.96,360.001,48.96z M359.28,55.2
	c-1.362-0.558-3.758-0.082-5.52-0.24c-0.551,3.209-0.087,7.434-0.24,11.04c1.157,0.367,3.892,0.423,5.04,0
	c3.125,0.005,4.768-1.473,5.04-4.32c0.397-0.336,0.397-2.304,0-2.64C363.237,56.684,361.782,55.418,359.28,55.2z"/>
<path fill-rule="evenodd" clip-rule="evenodd" fill="#FFFFFF" d="M80.88,49.92c0.316-0.301,2.698-0.63,2.64,0.24
	C83.005,49.716,81.762,49.998,80.88,49.92z"/>
<path fill-rule="evenodd" clip-rule="evenodd" fill="#FFFFFF" d="M230.4,49.92c0.316-0.301,2.698-0.63,2.64,0.24
	C232.525,49.716,231.282,49.998,230.4,49.92z"/>
<path opacity="0" fill-rule="evenodd" clip-rule="evenodd" d="M153.84,52.08c6.972-0.627,9.268,7.879,5.52,12
	c-2.844,3.128-7.824,2.642-13.68,2.64c0-1.921,0-4.457,0-7.439c0-1.875-0.657-6.452,0.24-7.2
	C147.109,51.09,152.18,52.831,153.84,52.08z"/>
<path fill-rule="evenodd" clip-rule="evenodd" d="M47.28,54c-0.158,1.683,0.317,3.997-0.24,5.28
	C47.198,57.598,46.723,55.283,47.28,54z"/>
<path fill-rule="evenodd" clip-rule="evenodd" d="M184.081,81.84c-3.041,0.56-7.12,0.081-10.56,0.24c0-2.185,0-4.391,0-7.2
	c0-1.453-0.768-6.432,0-7.2c0.753-0.753,4.521,0,5.52,0c2.332,0,3.853-0.182,5.28,0.24c-3.52,0-7.04,0-10.56,0
	c0,4.561,0,9.12,0,13.681C176.721,82.159,180.72,81.681,184.081,81.84z"/>
<path opacity="0" fill-rule="evenodd" clip-rule="evenodd" d="M184.32,67.92c3.725,0.355,6.217,1.943,6.72,5.521
	c0,0.88,0,1.76,0,2.64c-0.495,3.744-2.95,5.529-6.959,5.76c-3.361-0.159-7.359,0.319-10.32-0.239c0-4.561,0-9.12,0-13.681
	C177.28,67.92,180.8,67.92,184.32,67.92z"/>
<path fill-rule="evenodd" clip-rule="evenodd" fill="#FFFFFF" d="M47.28,54c0.193-4.236-1.178-7.428,0.48-10.8
	c0.81-1.647,2.669-2.672,3.6-4.32c2.525-4.471,2.117-9.91,4.32-15.12c-0.601-1.794,0.018-3.006,0.24-4.56
	c1.839-0.049,5.434,0.144,6.96,1.2c-0.281,1.959-0.883,3.597-0.96,5.76c-0.547,0.333-0.089,1.67-0.24,2.4c0,1.52,0,3.04,0,4.56
	c-0.547,0.333-0.089,1.67-0.24,2.4c0.153,0.887-0.311,2.391,0.24,2.88c-0.101,3.075,2.627,5.296,2.64,8.88
	c0.017,4.9-1.722,11.769-2.64,18.479c-0.452,3.305-0.631,15.972-3.6,17.28c-3.117,1.373-8.46-1.688-12.24-1.2
	c1.042-6.877,1.037-14.803,1.2-22.56C47.597,57.997,47.123,55.683,47.28,54z M60.96,24c0.225-0.203,0.513-1.53,0-1.68
	C60.717,22.75,60.042,23.793,60.96,24z M60.48,25.68c-0.318,3.189-1.257,6.616-1.44,9.84c-0.063,1.113-0.537,2.941,0.72,3.6
	c1.174-3.473,0.997-10.833,0.72-14.16C60.48,25.2,60.48,25.44,60.48,25.68z M60.96,43.44c-0.3,0.352-0.015,0.393,0,0.72
	c0.558,12.526-4.789,25.491-4.08,37.2c2.242-1.435,2.015-4.97,2.4-7.681c0.836-5.89,1.559-11.981,2.4-17.76
	c0.708-4.868,2.128-9.845-0.24-12.72C61.199,43.199,61.154,43.395,60.96,43.44z"/>
<path fill-rule="evenodd" clip-rule="evenodd" fill="#FFFFFF" d="M327.601,84.48c-4.162-0.878-8.123-1.957-10.32-4.801
	c1.755-1.806,1.156-4.256,3.841-4.56c2.306-0.261,4.898,2.667,7.439,2.88c3.552,0.298,6.204-1.07,5.521-4.8
	c-0.648-3.53-7.309-3.439-11.04-5.521c-3.468-1.933-5.904-7.048-4.08-12.239c2.645-7.526,16.146-9.446,22.319-3.12
	c-1.681,1.987-1.036,4.456-3.6,4.8c-1.954,0.262-3.385-2.01-6.48-2.16c-2.814-0.137-5.393,0.603-5.04,3.84
	c0.26,2.379,4.198,3.463,6.721,4.32c2.998,1.019,5.787,2.18,7.2,4.08c5.06,6.804-0.649,17.078-9.12,17.28
	C329.841,84.48,328.721,84.48,327.601,84.48z"/>
<path fill-rule="evenodd" clip-rule="evenodd" d="M61.44,43.2c2.369,2.875,0.949,7.852,0.24,12.72
	c-0.841,5.778-1.564,11.87-2.4,17.76c-0.385,2.711-0.158,6.246-2.4,7.681c-0.708-11.709,4.638-24.674,4.08-37.2
	c-0.015-0.327-0.3-0.368,0-0.72C61.154,43.395,61.199,43.199,61.44,43.2z"/>
<path fill-rule="evenodd" clip-rule="evenodd" d="M61.92,28.56c-0.157,1.443,0.316,3.516-0.24,4.56c0-1.52,0-3.04,0-4.56
	C61.76,28.56,61.84,28.56,61.92,28.56z"/>
<path fill-rule="evenodd" clip-rule="evenodd" d="M363.601,59.04c0.397,0.336,0.397,2.304,0,2.64
	C363.601,60.8,363.601,59.92,363.601,59.04z"/>
<path fill-rule="evenodd" clip-rule="evenodd" d="M44.64,75.12c-0.152,0.808,0.309,2.229-0.24,2.64
	C44.552,76.952,44.091,75.531,44.64,75.12z"/>
<path fill-rule="evenodd" clip-rule="evenodd" d="M80.88,84c0.882-0.078,2.125,0.205,2.64-0.24
	C83.579,84.631,81.197,84.301,80.88,84z"/>
<path fill-rule="evenodd" clip-rule="evenodd" d="M163.92,84c0.729-0.15,2.067,0.308,2.4-0.24
	C167.233,84.457,164.125,84.421,163.92,84z"/>
<path fill="#FFFFFF" stroke="#000000" stroke-miterlimit="10" d="M297.36,84c0.882-0.078,2.125,0.205,2.641-0.24
	C300.059,84.631,297.678,84.301,297.36,84z"/>
</svg>
