<?xml version="1.0" encoding="UTF-8" standalone="no"?>
<svg width="217px" height="50px" viewBox="0 0 217 50" version="1.1" xmlns="http://www.w3.org/2000/svg" xmlns:xlink="http://www.w3.org/1999/xlink" xmlns:sketch="http://www.bohemiancoding.com/sketch/ns">
    <!-- Generator: Sketch 3.3.2 (12043) - http://www.bohemiancoding.com/sketch -->
    <title>Sales Pros Logo 2</title>
    <desc>Created with Sketch.</desc>
    <defs></defs>
    <g id="Page-1" stroke="none" stroke-width="1" fill="none" fill-rule="evenodd" sketch:type="MSPage">
        <g id="Supplier-Dashboard-3" sketch:type="MSArtboardGroup" transform="translate(-35.000000, -2361.000000)" fill="#576472">
            <g id="Recaps-2" sketch:type="MSLayerGroup" transform="translate(15.000000, 2260.000000)">
                <g id="Filters-2" transform="translate(0.000000, 50.000000)">
                    <g id="Sales-Pros-Logo-2" transform="translate(20.000000, 51.000000)">
                        <path d="M20.8245966,33.4714286 C21.2711492,30.0084416 22.7818678,26.7532468 24.2528644,24.324026 C25.0063017,23.0805195 25.5643322,21.9577922 25.9545051,20.9837662 C25.135078,20.7837662 24.2483797,20.6116883 23.2931288,20.4727273 C21.1167458,23.6454545 18.1715492,25.6474026 15.6389492,25.6474026 C13.5202271,25.6474026 10.6916339,23.7948052 8.45758983,20.8311688 C3.27642712,21.9097403 0.30880678,23.9980519 0.30880678,26.3974026 C0.30880678,26.7915584 0.392735593,27.1753247 0.548420339,27.5480519 L4.19259661,45.0415584 L19.7431322,45.0415584 C19.9558373,42.4214286 20.4760678,36.1727273 20.8245966,33.4714286" id="Fill-1" sketch:type="MSShapeGroup"></path>
                        <path d="M34.1596678,25.6623377 C33.3530542,22.9292208 33.1473966,20.8298701 33.3139729,19.538961 C33.4504373,18.4831169 34.1372441,13.1577922 34.3826237,11.2525974 L34.3832644,11.2525974 C34.7522949,11.3019481 35.0918542,11.0376623 35.1411864,10.6623377 C35.1892373,10.287013 34.9284814,9.94350649 34.5581695,9.89480519 L32.6559966,9.64220779 L30.751261,9.39025974 C30.3815898,9.34090909 30.0433119,9.60519481 29.993339,9.98051948 C29.9452881,10.3551948 30.2066847,10.6993506 30.5763559,10.7480519 L30.5769966,10.7480519 C30.3309763,12.6525974 29.6435288,17.9785714 29.5070644,19.0344156 C29.3404881,20.3253247 28.6081932,22.3006494 27.1359153,24.7305195 C25.664278,27.1603896 24.1529186,30.4142857 23.7063661,33.8785714 C23.2598136,37.3422078 22.530722,46.6383117 22.530722,46.6383117 C22.530722,46.6383117 22.602478,48.7201299 24.1779051,48.9292208 C25.7520508,49.1376623 27.5286508,49.3727273 27.5286508,49.3727273 C27.5286508,49.3727273 29.3033288,49.6084416 30.8787559,49.8175325 C32.4529017,50.025974 33.0519356,48.0331169 33.0519356,48.0331169 C33.0519356,48.0331169 34.7068068,38.8590909 35.1527186,35.3954545 C35.5999119,31.9311688 34.9656407,28.3935065 34.1596678,25.6623377" id="Fill-2" sketch:type="MSShapeGroup"></path>
                        <path d="M23.5436339,10.3844156 C23.320678,2.08506494 19.8674237,0.0188311688 15.6389492,0.0188311688 C11.4220068,0.0188311688 7.9758,2.66493506 7.73682712,10.3831169 C6.77837288,10.4980519 6.70853898,11.8279221 6.85589492,13.2233766 C7.01542373,14.7350649 8.56394237,15.8006494 8.60558644,15.7883117 C10.1579492,19.7311688 13.4279695,22.4844156 15.6389492,22.4844156 C18.1785966,22.4844156 21.2852441,19.737013 22.735739,15.8019481 C22.7568814,15.8058442 24.2624746,14.7350649 24.4226441,13.2233766 C24.57,11.8298701 24.4892746,10.3454545 23.5436339,10.3844156" id="Fill-3" sketch:type="MSShapeGroup"></path>
                        <text id="SALESPROS" sketch:type="MSTextLayer" font-family="Lato" font-size="25.4545455" font-weight="260" line-spacing="22" letter-spacing="3.33333349">
                            <tspan x="53.8983051" y="33.2137936">SALES</tspan>
                            <tspan x="139.915882" y="32.5263158" font-weight="420">PROS</tspan>
                        </text>
                        <text id="DEMO-EVENT-RECAP" sketch:type="MSTextLayer" font-family="Lato" font-size="12" font-weight="420" sketch:alignment="right" letter-spacing="1.28571427">
                            <tspan x="54.0582452" y="44">DEMO EVENT RECA</tspan>
                            <tspan x="184.655959" y="44" letter-spacing="1.10204077">P</tspan>
                        </text>
                    </g>
                </g>
            </g>
        </g>
    </g>
</svg>